<svg width="245" height="226" viewBox="0 0 245 226" fill="none" xmlns="http://www.w3.org/2000/svg">
<path d="M125.815 5.5542L150.744 79.0496C151.914 82.4987 155.152 84.8192 158.794 84.8192H238.901C242.328 84.8192 243.713 89.2344 240.9 91.1919L176.542 135.982C173.434 138.145 172.132 142.103 173.348 145.689L198.034 218.466C199.119 221.664 195.493 224.392 192.721 222.463L127.355 176.972C124.437 174.941 120.563 174.941 117.645 176.972L52.2793 222.463C49.5073 224.392 45.8807 221.664 46.9655 218.466L71.6516 145.689C72.868 142.103 71.5656 138.145 68.4575 135.982L4.10007 91.1919C1.28734 89.2344 2.67249 84.8192 6.09939 84.8192H86.2062C89.8484 84.8192 93.0858 82.4987 94.2557 79.0496L119.186 5.55419C120.26 2.38659 124.74 2.38657 125.815 5.5542Z" stroke="black" stroke-width="5"/>
</svg>
